<svg xmlns="http://www.w3.org/2000/svg" width="250" height="309.1" viewBox="0 0 286.5 309.1">
  <g id="Ice">
    <g>
      <path d="M271.5,152.3,284.9,25A21.6,21.6,0,0,0,263.4,1.5H23.1A21.7,21.7,0,0,0,1.7,26L18.9,155.3" style="fill: none;stroke: #231f20;stroke-linecap: round;stroke-linejoin: round;stroke-width: 3px"/>
      <path class='liquid' d="M18.9,155.3c9.2,7.9,20.3,15.6,28.9,15.6H232.1a8.6,8.6,0,0,0,2.8-.4c9.2-2.9,19.3-5.5,36.6-18.2l-13,124.4a33.9,33.9,0,0,1-33.7,30.9H68.7a33.8,33.8,0,0,1-33.5-29.4Z" style="fill: none;stroke: #231f20;stroke-linecap: round;stroke-linejoin: round;stroke-width: 3px"/>
      <rect claass='ices' x="150.3" y="135" width="80.2" height="80.23" rx="14.6" transform="translate(37.5 -33.5) rotate(11.2)" style="fill: none;stroke: #231f20;stroke-miterlimit: 10"/>
      <rect class='ices' x="54.7" y="129.5" width="80.2" height="80.23" rx="14.6" transform="translate(-67.6 62.9) rotate(-27.5)" style="fill: none;stroke: #231f20;stroke-miterlimit: 10"/>
    </g>
  </g>
</svg>
